<svg xmlns="http://www.w3.org/2000/svg" xmlns:xlink="http://www.w3.org/1999/xlink" viewBox="0 0 1810.486 1853.848"><defs><style>.a{fill:url(#a);}.b{fill:url(#b);}</style><linearGradient id="a" x1="0.444" y1="0.04" x2="0.5" y2="1" gradientUnits="objectBoundingBox"><stop offset="0" stop-color="#0090ff"/><stop offset="1" stop-color="#00b9ff"/></linearGradient><linearGradient id="b" x1="0.549" y1="-0.775" x2="0.5" y2="1" gradientUnits="objectBoundingBox"><stop offset="0" stop-color="#212121"/><stop offset="1"/></linearGradient></defs><g transform="translate(226.068 851.664)"><path class="a" d="M67.055,1216.961c94.458,110.578,323.2,225.507,514.1,159.563s307.3-257.412,458.182-309.531,297.726-388.108,249.231-643.6S1130.85,64.289,897.319-18.394,683.3,175.242,366.876,188.376-94.077,434.361,11.667,661.153-27.4,1106.382,67.055,1216.961Z" transform="translate(973.996 961.986) rotate(-155)"/><path class="b" d="M85.086,1178.123c98.126,108.061,333.676,221.8,528.07,160.064S924.027,1092.4,1077.667,1043.6,1376.973,671.212,1323.9,423.4,1157.695,74.092,917.68-8.491,701.37,176.588,377.854,185.84-90.351,418.886,20.894,639.553-13.04,1070.061,85.086,1178.123Z" transform="matrix(-0.966, -0.259, 0.259, -0.966, 1069.762, 909.314)"/></g></svg>